HIERARCHY
ROOT simHips
{
  OFFSET 1.33331 99.2249 -8.19265
  CHANNELS 6 Xposition Yposition Zposition Zrotation Xrotation Yrotation
  JOINT simSpine
  {
    OFFSET -0.000355721 21.3001 -0.016921
    CHANNELS 3 Zrotation Xrotation Yrotation
    JOINT simLeftArm
    {
      OFFSET 13.5181 21.3012 0
      CHANNELS 3 Zrotation Xrotation Yrotation
      JOINT simLeftForeArm
      {
        OFFSET 24.5783 0 0
        CHANNELS 3 Zrotation Xrotation Yrotation
        JOINT simLeftHand
        {
          OFFSET 24.5783 0 0
          CHANNELS 3 Zrotation Xrotation Yrotation
          End Site
          {
            OFFSET 7.32568 1.52588e-005 0.0169305
          }
        }
      }
    }
    JOINT simHead
    {
      OFFSET 0 27.4458 -0.00489235
      CHANNELS 3 Zrotation Xrotation Yrotation
      End Site
      {
        OFFSET 0 0 0
      }
    }
    JOINT simRightArm
    {
      OFFSET -13.5174 21.3012 0
      CHANNELS 3 Zrotation Xrotation Yrotation
      JOINT simRightForeArm
      {
        OFFSET -24.5783 0 0
        CHANNELS 3 Zrotation Xrotation Yrotation
        JOINT simRightHand
        {
          OFFSET -24.5783 0 0
          CHANNELS 3 Zrotation Xrotation Yrotation
          End Site
          {
            OFFSET -7.32568 1.52588e-005 0.0169305
          }
        }
      }
    }
  }
  JOINT simRightUpLeg
  {
    OFFSET -8.44614 -9.41038 0.835684
    CHANNELS 3 Zrotation Xrotation Yrotation
    JOINT simRightLeg
    {
      OFFSET 0 -40.9639 0
      CHANNELS 3 Zrotation Xrotation Yrotation
      JOINT simRightFoot
      {
        OFFSET 0 -40.9639 0
        CHANNELS 3 Zrotation Xrotation Yrotation
        End Site
        {
          OFFSET 0.50614 -9.67405 14.6709
        }
      }
    }
  }
  JOINT simLeftUpLeg
  {
    OFFSET 8.44614 -9.41038 0.835684
    CHANNELS 3 Zrotation Xrotation Yrotation
    JOINT simLeftLeg
    {
      OFFSET 0 -40.9639 0
      CHANNELS 3 Zrotation Xrotation Yrotation
      JOINT simLeftFoot
      {
        OFFSET 0 -40.9639 0
        CHANNELS 3 Zrotation Xrotation Yrotation
        End Site
        {
          OFFSET -0.50614 -9.67405 14.6709
        }
      }
    }
  }
}
MOTION
Frames:	17
Frame Time:	0.0333333
1.94985 99.658 -6.7004 -1.85947 0.172789 -8.62255 -7.77575 -2.04726 -2.18197 -65.759 26.9395 -29.039 -44.0888 23.0285 -43.191 53.7316 6.72503 -64.0108 1.41626 5.37555 7.59328 89.7131 4.29535 -1.32075 0.749386 0.195394 0.345907 2.11297 7.13653 3.37066 -2.36455 -0.346505 0.584029 0.207691 0.0240251 4.5651 4.04366 0.0651155 2.76667 2.94772 -1.75548 2.4737 -0.570973 8.12693 2.17399 -0.670292 -6.19754 3.59629 
1.85378 99.6088 -6.69563 -1.8281 0.142046 -8.63892 -7.85079 -1.99536 -2.60176 -66.5305 27.7518 -29.7585 -43.5646 22.491 -42.6847 54.6647 6.30985 -63.5321 1.08947 5.55932 7.78912 89.5005 4.44042 -1.52532 0.695396 0.181151 0.321017 1.897 7.11892 3.15387 -2.34967 -0.346825 0.729757 0.225019 0.104522 4.43649 3.97233 0.0156499 2.77662 2.9981 -1.96498 2.54634 -0.589106 8.63981 2.21496 -0.74101 -6.46706 3.50369 
1.75401 99.5702 -6.69093 -1.79174 0.133779 -8.66444 -7.91478 -1.9783 -2.98774 -67.2537 28.4002 -30.346 -43.1187 22.0394 -42.2534 55.4113 6.15363 -62.9895 0.790186 5.79054 7.94399 89.2618 4.64503 -1.71511 0.628058 0.163427 0.289963 1.67261 6.91187 2.89836 -2.31636 -0.276936 1.01895 0.209583 -0.0129345 4.17329 3.92035 0.0688901 2.76174 3.04804 -2.12768 2.63345 -0.604657 9.01392 2.22278 -0.811163 -6.66685 3.42363 
1.65816 99.5331 -6.68802 -1.74375 0.155468 -8.72855 -7.94727 -2.00975 -3.33483 -67.9271 28.7584 -30.6876 -42.7997 21.7197 -41.9449 55.8303 6.37086 -62.4907 0.516731 6.04125 8.04677 88.9978 4.8769 -1.87819 0.554386 0.144078 0.256056 1.43249 6.6593 2.64121 -2.28961 -0.434235 1.26973 0.19564 0.245381 3.96305 3.85736 -0.0567747 2.77923 3.08842 -2.31053 2.71118 -0.624909 9.3625 2.20571 -0.870943 -6.8519 3.41352 
1.57499 99.4888 -6.68869 -1.69129 0.19984 -8.8435 -7.93971 -2.08569 -3.64188 -68.5292 28.7697 -30.723 -42.6334 21.5539 -41.7836 55.8978 6.9376 -62.1125 0.27188 6.26864 8.09245 88.7269 5.08676 -2.00278 0.483698 0.125549 0.223477 1.16329 6.52981 2.42605 -2.29459 -0.988142 1.27814 0.241586 1.22118 4.07055 3.74985 -0.526795 2.80545 3.11839 -2.55452 2.75407 -0.647621 9.79125 2.2065 -0.921838 -7.07898 3.47484 
1.5078 99.4397 -6.69081 -1.65078 0.250496 -9.01237 -7.89693 -2.18898 -3.90712 -69.0265 28.482 -30.4752 -42.607 21.5276 -41.758 55.732 7.67642 -61.878 0.0611993 6.43192 8.10439 88.4793 5.22606 -2.08345 0.42514 0.110241 0.196506 0.856189 6.65064 2.29051 -2.3448 -1.55161 0.999794 0.373463 2.18436 4.59216 3.60138 -0.982184 2.75993 3.14403 -2.83199 2.76303 -0.660006 10.2889 2.27806 -0.976466 -7.34504 3.55388 
1.44965 99.3981 -6.68792 -1.63475 0.290754 -9.23456 -7.83375 -2.29924 -4.12621 -69.3908 28.0301 -30.0441 -42.6736 21.5941 -41.8226 55.5499 8.31994 -61.7596 -0.1108 6.50883 8.13865 88.2864 5.26616 -2.12626 0.384945 0.0996705 0.177942 0.517338 7.05439 2.25364 -2.40862 -1.99712 0.655847 0.560644 2.93058 5.29392 3.42371 -1.32549 2.62505 3.17477 -3.0541 2.7734 -0.650465 10.7244 2.43996 -1.04895 -7.58749 3.58812 
1.38734 99.3772 -6.67432 -1.64258 0.310287 -9.50018 -7.76695 -2.40228 -4.29356 -69.6183 27.5785 -29.5646 -42.7723 21.692 -41.9178 55.5659 8.62358 -61.6985 -0.244104 6.50607 8.26145 88.1696 5.20942 -2.14957 0.364666 0.0947568 0.168543 0.174502 7.66127 2.30675 -2.43474 -2.22165 0.582201 0.738474 3.29536 5.75539 3.25822 -1.48447 2.45768 3.21723 -3.12519 2.82688 -0.619334 10.9405 2.65998 -1.14284 -7.73299 3.55445 
1.31177 99.3817 -6.65117 -1.66227 0.307901 -9.77975 -7.70886 -2.49427 -4.40582 -69.7352 27.2535 -29.1511 -42.852 21.7716 -41.995 55.883 8.47087 -61.6287 -0.34197 6.45376 8.51108 88.1357 5.08686 -2.17855 0.360416 0.0940352 0.166589 -0.125326 8.30683 2.41339 -2.39734 -2.21489 0.921457 0.852242 3.25629 5.73187 3.14261 -1.44969 2.3443 3.26714 -3.01526 2.92485 -0.575025 10.8675 2.88527 -1.24944 -7.74351 3.47798 
1.2259 99.4035 -6.62754 -1.68305 0.28925 -10.0241 -7.66263 -2.57911 -4.46382 -69.7798 27.0958 -28.86 -42.8942 21.8137 -42.0357 56.4346 7.91797 -61.5018 -0.406733 6.38685 8.86827 88.1774 4.94271 -2.23467 0.365895 0.0952753 0.169129 -0.327849 8.80561 2.52074 -2.31374 -2.05338 1.50753 0.88894 2.957 5.33489 3.0796 -1.29412 2.32583 3.31414 -2.78694 3.01201 -0.526555 10.5883 3.08198 -1.35574 -7.65049 3.4054 
1.14238 99.4272 -6.61509 -1.70402 0.262686 -10.1832 -7.62233 -2.66168 -4.47296 -69.7811 27.0575 -28.6809 -42.9151 21.8349 -42.0562 57.014 7.16448 -61.3121 -0.437166 6.32597 9.25501 88.2797 4.81283 -2.32598 0.375487 0.0976206 0.173567 -0.392734 9.02255 2.58106 -2.21915 -1.86326 2.05605 0.879019 2.62612 4.86559 3.04595 -1.12548 2.37079 3.35283 -2.56472 3.01865 -0.47692 10.2941 3.2467 -1.45368 -7.5336 3.36496 
1.07274 99.4418 -6.62068 -1.72865 0.239244 -10.2297 -7.57591 -2.74203 -4.44044 -69.7411 27.033 -28.5566 -42.9542 21.874 -42.094 57.3677 6.47082 -61.1107 -0.431692 6.27056 9.56488 88.4254 4.70852 -2.44288 0.387632 0.100336 0.179139 -0.312891 8.924 2.57326 -2.13842 -1.72006 2.39552 0.862012 2.39723 4.54285 3.02151 -1.01217 2.42639 3.3855 -2.44331 2.92111 -0.425983 10.1318 3.38626 -1.54111 -7.4576 3.34849 
1.01931 99.4474 -6.64308 -1.75495 0.232719 -10.1708 -7.50744 -2.81445 -4.37222 -69.635 26.9057 -28.411 -43.0492 21.9693 -42.1858 57.2984 6.06582 -60.9899 -0.395337 6.20518 9.71107 88.5972 4.61308 -2.56152 0.40509 0.105014 0.187216 -0.122366 8.58707 2.51267 -2.07795 -1.65129 2.51559 0.855687 2.28749 4.39887 2.99894 -0.95893 2.46865 3.41744 -2.43653 2.76751 -0.378158 10.1034 3.48864 -1.61488 -7.42377 3.32899 
0.974947 99.453 -6.67534 -1.77554 0.25183 -10.0443 -7.39833 -2.87187 -4.27216 -69.4251 26.5872 -28.1716 -43.2156 22.137 -42.3469 56.7295 6.08612 -61.04 -0.345447 6.11321 9.66758 88.776 4.49274 -2.65387 0.432787 0.112251 0.19997 0.113822 8.16522 2.44343 -2.03519 -1.61458 2.48096 0.860459 2.18501 4.37235 2.97614 -0.905803 2.49202 3.45592 -2.4886 2.64877 -0.345857 10.0948 3.51875 -1.66741 -7.3807 3.2894 
0.929932 99.4694 -6.71024 -1.78689 0.292034 -9.90195 -7.22584 -2.91148 -4.1425 -69.0816 26.0363 -27.7809 -43.4365 22.3607 -42.5606 55.7107 6.56063 -61.2978 -0.311348 5.98925 9.48058 88.9383 4.31582 -2.6988 0.47313 0.122806 0.218596 0.320546 7.82658 2.41852 -2.00685 -1.53119 2.36289 0.879787 1.93443 4.41909 2.94795 -0.772268 2.48184 3.50903 -2.50221 2.63257 -0.341269 9.9544 3.45263 -1.69332 -7.26712 3.23344 
0.879297 99.5033 -6.74374 -1.78817 0.340835 -9.78585 -6.96513 -2.93662 -3.98674 -68.6032 25.2622 -27.1977 -43.6639 22.592 -42.7803 54.3729 7.42222 -61.7087 -0.327907 5.84392 9.24287 89.0555 4.0703 -2.68875 0.523321 0.13593 0.241726 0.434041 7.69002 2.47812 -1.99661 -1.33426 2.22099 0.924456 1.43247 4.52948 2.90874 -0.511131 2.41759 3.56847 -2.40929 2.71474 -0.355305 9.59088 3.30739 -1.70012 -7.04565 3.17845 
0.823576 99.5548 -6.77383 -1.77147 0.389246 -9.70912 -6.59478 -2.95253 -3.81163 -68.0201 24.3127 -26.3971 -43.8315 22.7638 -42.9426 52.8614 8.52662 -62.1187 -0.424958 5.69748 9.04494 89.0998 3.77132 -2.62927 0.574631 0.149387 0.265397 0.415869 7.78538 2.63533 -2.01649 -1.0037 2.08839 0.996821 0.654968 4.69885 2.86264 -0.112296 2.29428 3.59915 -2.18324 2.83011 -0.353253 8.97487 3.12987 -1.70829 -6.70609 3.14553 
